<?xml version="1.0"?>
<svg xmlns="http://www.w3.org/2000/svg" xmlns:xlink="http://www.w3.org/1999/xlink" xmlns:svgjs="http://svgjs.com/svgjs" version="1.1" width="512" height="512" x="0" y="0" viewBox="0 0 464 464" style="enable-background:new 0 0 512 512" xml:space="preserve" class=""><g>
<path xmlns="http://www.w3.org/2000/svg" style="" d="M24,208h416v256H24V208z" fill="#01a4c9" data-original="#a2dae7" class=""/>
<path xmlns="http://www.w3.org/2000/svg" style="" d="M24,208h416v32H24V208z" fill="#8dd3e7" data-original="#8dd3e7" class=""/>
<path xmlns="http://www.w3.org/2000/svg" style="" d="M0,128h464v80H0V128z" fill="#01a4c9" data-original="#a2dae7" class=""/>
<g xmlns="http://www.w3.org/2000/svg">
	<path style="" d="M200,128h64v336h-64V128z" fill="#fc5b68" data-original="#fc5b68" class=""/>
	<path style="" d="M200,128l-80,176l-24-32H56l72-144H200z" fill="#fc5b68" data-original="#fc5b68" class=""/>
</g>
<path xmlns="http://www.w3.org/2000/svg" style="" d="M224.8,38.344C214.604,15.043,191.578-0.009,166.144,0h-64c25.388,0.145,48.338,15.147,58.656,38.344  L200,128h64L224.8,38.344z" fill="#f04855" data-original="#f04855" class=""/>
<g xmlns="http://www.w3.org/2000/svg">
	<path style="" d="M96,64c0.005-24.074,13.533-46.105,35-57c-8.935-4.569-18.821-6.967-28.856-7H96   C60.654,0,32,28.654,32,64s28.654,64,64,64h64C124.654,128,96,99.346,96,64z" fill="#fc5b68" data-original="#fc5b68" class=""/>
	<path style="" d="M239.2,38.344C249.396,15.043,272.422-0.009,297.856,0h64   c-25.388,0.145-48.338,15.147-58.656,38.344L264,128h-64L239.2,38.344z" fill="#fc5b68" data-original="#fc5b68" class=""/>
	<path style="" d="M368,64c-0.005-24.074-13.533-46.105-35-57c8.935-4.569,18.821-6.967,28.856-7H368   c35.346,0,64,28.654,64,64s-28.654,64-64,64h-64C339.346,128,368,99.346,368,64z" fill="#fc5b68" data-original="#fc5b68" class=""/>
	<path style="" d="M264,128l80,176l24-32h40l-72-144H264z" fill="#fc5b68" data-original="#fc5b68" class=""/>
</g>
<path xmlns="http://www.w3.org/2000/svg" style="" d="M200,128h64v40h-64V128z" fill="#f04855" data-original="#f04855" class=""/>
<g xmlns="http://www.w3.org/2000/svg">
</g>
<g xmlns="http://www.w3.org/2000/svg">
</g>
<g xmlns="http://www.w3.org/2000/svg">
</g>
<g xmlns="http://www.w3.org/2000/svg">
</g>
<g xmlns="http://www.w3.org/2000/svg">
</g>
<g xmlns="http://www.w3.org/2000/svg">
</g>
<g xmlns="http://www.w3.org/2000/svg">
</g>
<g xmlns="http://www.w3.org/2000/svg">
</g>
<g xmlns="http://www.w3.org/2000/svg">
</g>
<g xmlns="http://www.w3.org/2000/svg">
</g>
<g xmlns="http://www.w3.org/2000/svg">
</g>
<g xmlns="http://www.w3.org/2000/svg">
</g>
<g xmlns="http://www.w3.org/2000/svg">
</g>
<g xmlns="http://www.w3.org/2000/svg">
</g>
<g xmlns="http://www.w3.org/2000/svg">
</g>
</g></svg>
